<?xml version="1.0" encoding="utf-8"?>
<svg xmlns="http://www.w3.org/2000/svg" xmlns:xlink="http://www.w3.org/1999/xlink" version="1.1" style="width:0;height:0;position:absolute;overflow:hidden;">
  <defs>
<symbol viewBox="0 0 966 998" aria-labelledby="aosi-awesome-angle-double-left-title" id="si-awesome-angle-double-left"><title id="aosi-awesome-angle-double-left-title">icon angle-double-left</title><path d="M582 915q0 13-10 23l-50 50q-10 10-23 10t-23-10L10 522Q0 512 0 499t10-23L476 10q10-10 23-10t23 10l50 50q10 10 10 23t-10 23L179 499l393 393q10 10 10 23zm384 0q0 13-10 23l-50 50q-10 10-23 10t-23-10L394 522q-10-10-10-23t10-23L860 10q10-10 23-10t23 10l50 50q10 10 10 23t-10 23L563 499l393 393q10 10 10 23z"/></symbol>
<symbol viewBox="0 0 1792 1408" aria-labelledby="bysi-awesome-barcode-title" id="si-awesome-barcode"><title id="bysi-awesome-barcode-title">icon barcode</title><path d="M63 1408H0V0h63v1408zm63-1H94V0h32v1407zm94 0h-31V0h31v1407zm157 0h-31V0h31v1407zm157 0h-62V0h62v1407zm126 0h-31V0h31v1407zm63 0h-31V0h31v1407zm63 0h-31V0h31v1407zm157 0h-63V0h63v1407zm157 0h-63V0h63v1407zm126 0h-63V0h63v1407zm126 0h-63V0h63v1407zm94 0h-63V0h63v1407zm189 0h-94V0h94v1407zm63 0h-32V0h32v1407zm94 1h-63V0h63v1408z"/></symbol>
<symbol viewBox="0 0 1188 1188" aria-labelledby="fosi-awesome-close-title" id="si-awesome-close"><title id="fosi-awesome-close-title">icon close</title><path d="M1188 956q0 40-28 68l-136 136q-28 28-68 28t-68-28L594 866l-294 294q-28 28-68 28t-68-28L28 1024Q0 996 0 956t28-68l294-294L28 300Q0 272 0 232t28-68L164 28q28-28 68-28t68 28l294 294L888 28q28-28 68-28t68 28l136 136q28 28 28 68t-28 68L866 594l294 294q28 28 28 68z"/></symbol>
<symbol viewBox="0 0 1792 1408" aria-labelledby="htsi-awesome-envelope-title" id="si-awesome-envelope"><title id="htsi-awesome-envelope-title">icon envelope</title><path d="M1792 454v794q0 66-47 113t-113 47H160q-66 0-113-47T0 1248V454q44 49 101 87 362 246 497 345 57 42 92.5 65.5t94.5 48 110 24.5h2q51 0 110-24.5t94.5-48T1194 886q170-123 498-345 57-39 100-87zm0-294q0 79-49 151t-122 123q-376 261-468 325-10 7-42.5 30.5t-54 38-52 32.5-57.5 27-50 9h-2q-23 0-50-9t-57.5-27-52-32.5-54-38T639 759q-91-64-262-182.5T172 434q-62-42-117-115.5T0 182q0-78 41.5-130T160 0h1472q65 0 112.5 47t47.5 113z"/></symbol>
<symbol viewBox="0 0 1536 1500.3333740234375" aria-labelledby="kpsi-awesome-github-title" id="si-awesome-github"><title id="kpsi-awesome-github-title">icon github</title><path d="M768 0q209 0 385.5 103T1433 382.5 1536 768q0 251-146.5 451.5T1011 1497q-27 5-40-7t-13-30q0-3 .5-76.5t.5-134.5q0-97-52-142 57-6 102.5-18t94-39 81-66.5 53-105T1258 728q0-119-79-206 37-91-8-204-28-9-81 11t-92 44l-38 24q-93-26-192-26t-192 26q-16-11-42.5-27T450 331.5 365 318q-45 113-8 204-79 87-79 206 0 85 20.5 150T351 983t80.5 67 94 39 102.5 18q-39 36-49 103-21 10-45 15t-57 5-65.5-21.5T356 1146q-19-32-48.5-52t-49.5-24l-20-3q-21 0-29 4.5t-5 11.5 9 14 13 12l7 5q22 10 43.5 38t31.5 51l10 23q13 38 44 61.5t67 30 69.5 7 55.5-3.5l23-4q0 38 .5 88.5t.5 54.5q0 18-13 30t-40 7q-232-77-378.5-277.5T0 768q0-209 103-385.5T382.5 103 768 0zM291 1103q3-7-7-12-10-3-13 2-3 7 7 12 9 6 13-2zm31 34q7-5-2-16-10-9-16-3-7 5 2 16 10 10 16 3zm30 45q9-7 0-19-8-13-17-6-9 5 0 18t17 7zm42 42q8-8-4-19-12-12-20-3-9 8 4 19 12 12 20 3zm57 25q3-11-13-16-15-4-19 7t13 15q15 6 19-6zm63 5q0-13-17-11-16 0-16 11 0 13 17 11 16 0 16-11zm58-10q-2-11-18-9-16 3-14 15t18 8 14-14z"/></symbol>
<symbol viewBox="0 0 1536 1536" aria-labelledby="kxsi-awesome-globe-title" id="si-awesome-globe"><title id="kxsi-awesome-globe-title">icon globe</title><path d="M768 0q209 0 385.5 103T1433 382.5 1536 768t-103 385.5-279.5 279.5T768 1536t-385.5-103T103 1153.5 0 768t103-385.5T382.5 103 768 0zm274 521q-2 1-9.5 9.5T1019 540q2 0 4.5-5t5-11 3.5-7q6-7 22-15 14-6 52-12 34-8 51 11-2-2 9.5-13t14.5-12q3-2 15-4.5t15-7.5l2-22q-12 1-17.5-7t-6.5-21q0 2-6 8 0-7-4.5-8t-11.5 1-9 1q-10-3-15-7.5t-8-16.5-4-15q-2-5-9.5-10.5T1112 356q-1-2-2.5-5.5t-3-6.5-4-5.5-5.5-2.5-7 5-7.5 10-4.5 5q-3-2-6-1.5t-4.5 1-4.5 3-5 3.5q-3 2-8.5 3t-8.5 2q15-5-1-11-10-4-16-3 9-4 7.5-12t-8.5-14h5q-1-4-8.5-8.5T1002 310t-13-6q-8-5-34-9.5t-33-.5q-5 6-4.5 10.5t4 14T925 331q1 6-5.5 13t-6.5 12q0 7 14 15.5t10 21.5q-3 8-16 16t-16 12q-5 8-1.5 18.5T914 456q2 2 1.5 4t-3.5 4.5-5.5 4-6.5 3.5l-3 2q-11 5-20.5-6T863 442q-7-25-16-30-23-8-29 1-5-13-41-26-25-9-58-4 6-1 0-15-7-15-19-12 3-6 4-17.5t1-13.5q3-13 12-23 1-1 7-8.5t9.5-13.5.5-6q35 4 50-11 5-5 11.5-17t10.5-17q9-6 14-5.5t14.5 5.5 14.5 5q14 1 15.5-11t-7.5-20q12 1 3-17-5-7-8-9-12-4-27 5-8 4 2 8-1-1-9.5 10.5T801 218t-16-5q-1-1-5.5-13.5T770 186q-8 0-16 15 3-8-11-15t-24-8q19-12-8-27-7-4-20.5-5t-19.5 4q-5 7-5.5 11.5t5 8T681 175t11.5 4 8.5 3q14 10 8 14-2 1-8.5 3.5T689 204t-6 4q-3 4 0 14t-2 14q-5-5-9-17.5t-7-16.5q7 9-25 6l-10-1q-4 0-16 2t-20.5 1-13.5-8q-4-8 0-20 1-4 4-2-4-3-11-9.5t-10-8.5q-46 15-94 41 6 1 12-1 5-2 13-6.5t10-5.5q34-14 42-7l5-5q14 16 20 25-7-4-30-1-20 6-22 12 7 12 5 18-4-3-11.5-10T498 211t-15-5q-16 0-22 1-146 80-235 222 7 7 12 8 4 1 5 9t2.5 11 11.5-3q9 8 3 19 1-1 44 27 19 17 21 21 3 11-10 18-1-2-9-9t-9-4q-3 5 .5 18.5T308 557q-7 0-9.5 16t-2.5 35.5-1 23.5l2 1q-3 12 5.5 34.5T324 687q-13 3 20 43 6 8 8 9 3 2 12 7.5t15 10 10 10.5q4 5 10 22.5t14 23.5q-2 6 9.5 20t10.5 23q-1 0-2.5 1t-2.5 1q3 7 15.5 14t15.5 13q1 3 2 10t3 11 8 2q2-20-24-62-15-25-17-29-3-5-5.5-15.5T421 787q2 0 6 1.5t8.5 3.5 7.5 4 2 3q-3 7 2 17.5t12 18.5 17 19 12 13q6 6 14 19.5t0 13.5q9 0 20 10t17 20q5 8 8 26t5 24q2 7 8.5 13.5t12.5 9.5l16 8 13 7q5 2 18.5 10.5T642 1040q10 4 16 4t14.5-2.5 13.5-3.5q15-2 29 15t21 21q36 19 55 11-2 1 .5 7.5t8 15.5 9 14.5 5.5 8.5q5 6 18 15t18 15q6-4 7-9-3 8 7 20t18 10q14-3 14-32-31 15-49-18 0-1-2.5-5.5t-4-8.5-2.5-8.5 0-7.5 5-3q9 0 10-3.5t-2-12.5-4-13q-1-8-11-20t-12-15q-5 9-16 8t-16-9q0 1-1.5 5.5t-1.5 6.5q-13 0-15-1 1-3 2.5-17.5t3.5-22.5q1-4 5.5-12t7.5-14.5 4-12.5-4.5-9.5T775 954q-19 1-26 20-1 3-3 10.5t-5 11.5-9 7q-7 3-24 2t-24-5q-13-8-22.5-29t-9.5-37q0-10 2.5-26.5t3-25T652 858q3-2 9-9.5t10-10.5q2-1 4.5-1.5t4.5 0 4-1.5 3-6q-1-1-4-3-3-3-4-3 7 3 28.5-1.5T735 823q15 11 22-2 0-1-2.5-9.5T754 798q5 27 29 9 3 3 15.5 5t17.5 5q3 2 7 5.5t5.5 4.5 5-.5 8.5-6.5q10 14 12 24 11 40 19 44 7 3 11 2t4.5-9.5 0-14T887 854l-1-8v-18l-1-8q-15-3-18.5-12t1.5-18.5 15-18.5q1-1 8-3.5t15.5-6.5 12.5-8q21-19 15-35 7 0 11-9-1 0-5-3t-7.5-5-4.5-2q9-5 2-16 5-3 7.5-11t7.5-10q9 12 21 2 7-8 1-16 5-7 20.5-10.5t18.5-9.5q7 2 8-2t1-12 3-12q4-5 15-9t13-5l17-11q3-4 0-4 18 2 31-11 10-11-6-20 3-6-3-9.5t-15-5.5q3-1 11.5-.5t10.5-1.5q15-10-7-16-17-5-43 12zm-163 877q206-36 351-189-3-3-12.5-4.5t-12.5-3.5q-18-7-24-8 1-7-2.5-13t-8-9-12.5-8-11-7q-2-2-7-6t-7-5.5-7.5-4.5-8.5-2-10 1l-3 1q-3 1-5.5 2.5t-5.5 3-4 3 0 2.5q-21-17-36-22-5-1-11-5.5t-10.5-7-10-1.5-11.5 7q-5 5-6 15t-2 13q-7-5 0-17.5t2-18.5q-3-6-10.5-4.5t-12 4.5-11.5 8.5-9 6.5-8.5 5.5-8.5 7.5q-3 4-6 12t-5 11q-2-4-11.5-6.5t-9.5-5.5q2 10 4 35t5 38q7 31-12 48-27 25-29 40-4 22 12 26 0 7-8 20.5t-7 21.5q0 6 2 16z"/></symbol>
<symbol viewBox="0 0 1613.3333740234375 1283" aria-labelledby="masi-awesome-home-title" id="si-awesome-home"><title id="masi-awesome-home-title">icon home</title><path d="M1382.667 739v480q0 26-19 45t-45 19h-384V899h-256v384h-384q-26 0-45-19t-19-45V739q0-1 .5-3t.5-3l575-474 575 474q1 2 1 6zm223-69l-62 74q-8 9-21 11h-3q-13 0-21-7l-692-577-692 577q-12 8-24 7-13-2-21-11l-62-74q-8-10-7-23.5t11-21.5l719-599q32-26 76-26t76 26l244 204V35q0-14 9-23t23-9h192q14 0 23 9t9 23v408l219 182q10 8 11 21.5t-7 23.5z"/></symbol>
<symbol viewBox="0 0 1536 1536" aria-labelledby="mqsi-awesome-info-circle-title" id="si-awesome-info-circle"><title id="mqsi-awesome-info-circle-title">icon info-circle</title><path d="M1024 1248v-160q0-14-9-23t-23-9h-96V544q0-14-9-23t-23-9H544q-14 0-23 9t-9 23v160q0 14 9 23t23 9h96v320h-96q-14 0-23 9t-9 23v160q0 14 9 23t23 9h448q14 0 23-9t9-23zM896 352V192q0-14-9-23t-23-9H672q-14 0-23 9t-9 23v160q0 14 9 23t23 9h192q14 0 23-9t9-23zm640 416q0 209-103 385.5T1153.5 1433 768 1536t-385.5-103T103 1153.5 0 768t103-385.5T382.5 103 768 0t385.5 103T1433 382.5 1536 768z"/></symbol>
<symbol viewBox="0 0 1152 1408" aria-labelledby="nwsi-awesome-lock-title" id="si-awesome-lock"><title id="nwsi-awesome-lock-title">icon lock</title><path d="M320 640h512V448q0-106-75-181t-181-75-181 75-75 181v192zm832 96v576q0 40-28 68t-68 28H96q-40 0-68-28t-28-68V736q0-40 28-68t68-28h32V448q0-184 132-316T576 0t316 132 132 316v192h32q40 0 68 28t28 68z"/></symbol>
<symbol viewBox="0 0 1536 1536" aria-labelledby="rjsi-awesome-question-circle-title" id="si-awesome-question-circle"><title id="rjsi-awesome-question-circle-title">icon question-circle</title><path d="M896 1248v-192q0-14-9-23t-23-9H672q-14 0-23 9t-9 23v192q0 14 9 23t23 9h192q14 0 23-9t9-23zm256-672q0-88-55.5-163T958 297t-170-41q-243 0-371 213-15 24 8 42l132 100q7 6 19 6 16 0 25-12 53-68 86-92 34-24 86-24 48 0 85.5 26t37.5 59q0 38-20 61t-68 45q-63 28-115.5 86.5T640 892v36q0 14 9 23t23 9h192q14 0 23-9t9-23q0-19 21.5-49.5T972 829q32-18 49-28.5t46-35 44.5-48 28-60.5 12.5-81zm384 192q0 209-103 385.5T1153.5 1433 768 1536t-385.5-103T103 1153.5 0 768t103-385.5T382.5 103 768 0t385.5 103T1433 382.5 1536 768z"/></symbol>
<symbol viewBox="0 0 1408 1536" aria-labelledby="wasi-awesome-trash-title" id="si-awesome-trash"><title id="wasi-awesome-trash-title">icon trash</title><path d="M512 1248V544q0-14-9-23t-23-9h-64q-14 0-23 9t-9 23v704q0 14 9 23t23 9h64q14 0 23-9t9-23zm256 0V544q0-14-9-23t-23-9h-64q-14 0-23 9t-9 23v704q0 14 9 23t23 9h64q14 0 23-9t9-23zm256 0V544q0-14-9-23t-23-9h-64q-14 0-23 9t-9 23v704q0 14 9 23t23 9h64q14 0 23-9t9-23zM480 256h448l-48-117q-7-9-17-11H546q-10 2-17 11zm928 32v64q0 14-9 23t-23 9h-96v948q0 83-47 143.5t-113 60.5H288q-66 0-113-58.5T128 1336V384H32q-14 0-23-9t-9-23v-64q0-14 9-23t23-9h309l70-167q15-37 54-63t79-26h320q40 0 79 26t54 63l70 167h309q14 0 23 9t9 23z"/></symbol>
<symbol viewBox="0 0 1576 1280" aria-labelledby="wmsi-awesome-twitter-title" id="si-awesome-twitter"><title id="wmsi-awesome-twitter-title">icon twitter</title><path d="M1576 152q-67 98-162 167 1 14 1 42 0 130-38 259.5T1261.5 869 1077 1079.5t-258 146-323 54.5q-271 0-496-145 35 4 78 4 225 0 401-138-105-2-188-64.5T177 777q33 5 61 5 43 0 85-11-112-23-185.5-111.5T64 454v-4q68 38 146 41-66-44-105-115T66 222q0-88 44-163 121 149 294.5 238.5T776 397q-8-38-8-74 0-134 94.5-228.5T1091 0q140 0 236 102 109-21 205-78-37 115-142 178 93-10 186-50z"/></symbol>
<symbol viewBox="0 0 1408 1536" aria-labelledby="wwsi-awesome-user-md-title" id="si-awesome-user-md"><title id="wwsi-awesome-user-md-title">icon user-md</title><path d="M384 1216q0 26-19 45t-45 19-45-19-19-45 19-45 45-19 45 19 19 45zm1024 61q0 121-73 190t-194 69H267q-121 0-194-69T0 1277q0-68 5.5-131t24-138T77 875.5t81-103T278 712q-22 52-22 120v203q-58 20-93 70t-35 111q0 80 56 136t136 56 136-56 56-136q0-61-35.5-111t-92.5-70V832q0-62 25-93 132 104 295 104t295-104q25 31 25 93v64q-106 0-181 75t-75 181v89q-32 29-32 71 0 40 28 68t68 28 68-28 28-68q0-42-32-71v-89q0-52 38-90t90-38 90 38 38 90v89q-32 29-32 71 0 40 28 68t68 28 68-28 28-68q0-42-32-71v-89q0-68-34.5-127.5T1152 931q0-10 .5-42.5t0-48-2.5-41.5-7-47-13-40q68 15 120 60.5t81 103 47.5 132.5 24 138 5.5 131zm-320-893q0 159-112.5 271.5T704 768 432.5 655.5 320 384t112.5-271.5T704 0t271.5 112.5T1088 384z"/></symbol>
<symbol viewBox="0 0 1408 1536" aria-labelledby="wvsi-awesome-user-title" id="si-awesome-user"><title id="wvsi-awesome-user-title">icon user</title><path d="M1408 1277q0 120-73 189.5t-194 69.5H267q-121 0-194-69.5T0 1277q0-53 3.5-103.5t14-109T44 956t43-97.5 62-81 85.5-53.5T346 704q9 0 42 21.5t74.5 48 108 48T704 843t133.5-21.5 108-48 74.5-48 42-21.5q61 0 111.5 20t85.5 53.5 62 81 43 97.5 26.5 108.5 14 109 3.5 103.5zm-320-893q0 159-112.5 271.5T704 768 432.5 655.5 320 384t112.5-271.5T704 0t271.5 112.5T1088 384z"/></symbol>
  </defs>
</svg>
