<?xml version="1.0" encoding="utf-8"?>
<svg xmlns="http://www.w3.org/2000/svg" xmlns:xlink="http://www.w3.org/1999/xlink" version="1.1" style="width:0;height:0;position:absolute;overflow:hidden;">
  <defs>
<symbol viewBox="0 0 966 998" aria-labelledby="aosi-awesome-angle-double-left-title" id="si-awesome-angle-double-left"><title id="aosi-awesome-angle-double-left-title">icon angle-double-left</title><path d="M582 915q0 13-10 23l-50 50q-10 10-23 10t-23-10L10 522Q0 512 0 499t10-23L476 10q10-10 23-10t23 10l50 50q10 10 10 23t-10 23L179 499l393 393q10 10 10 23zm384 0q0 13-10 23l-50 50q-10 10-23 10t-23-10L394 522q-10-10-10-23t10-23L860 10q10-10 23-10t23 10l50 50q10 10 10 23t-10 23L563 499l393 393q10 10 10 23z"/></symbol>
<symbol viewBox="0 0 1792 1408" aria-labelledby="bysi-awesome-barcode-title" id="si-awesome-barcode"><title id="bysi-awesome-barcode-title">icon barcode</title><path d="M63 1408H0V0h63v1408zm63-1H94V0h32v1407zm94 0h-31V0h31v1407zm157 0h-31V0h31v1407zm157 0h-62V0h62v1407zm126 0h-31V0h31v1407zm63 0h-31V0h31v1407zm63 0h-31V0h31v1407zm157 0h-63V0h63v1407zm157 0h-63V0h63v1407zm126 0h-63V0h63v1407zm126 0h-63V0h63v1407zm94 0h-63V0h63v1407zm189 0h-94V0h94v1407zm63 0h-32V0h32v1407zm94 1h-63V0h63v1408z"/></symbol>
<symbol viewBox="0 0 1550 1188" aria-labelledby="essi-awesome-check-title" id="si-awesome-check"><title id="essi-awesome-check-title">icon check</title><path d="M1550 232q0 40-28 68l-724 724-136 136q-28 28-68 28t-68-28l-136-136L28 662Q0 634 0 594t28-68l136-136q28-28 68-28t68 28l294 295 656-657q28-28 68-28t68 28l136 136q28 28 28 68z"/></symbol>
<symbol viewBox="0 0 1188 1188" aria-labelledby="fosi-awesome-close-title" id="si-awesome-close"><title id="fosi-awesome-close-title">icon close</title><path d="M1188 956q0 40-28 68l-136 136q-28 28-68 28t-68-28L594 866l-294 294q-28 28-68 28t-68-28L28 1024Q0 996 0 956t28-68l294-294L28 300Q0 272 0 232t28-68L164 28q28-28 68-28t68 28l294 294L888 28q28-28 68-28t68 28l136 136q28 28 28 68t-28 68L866 594l294 294q28 28 28 68z"/></symbol>
<symbol viewBox="0 0 1792 1408" aria-labelledby="htsi-awesome-envelope-title" id="si-awesome-envelope"><title id="htsi-awesome-envelope-title">icon envelope</title><path d="M1792 454v794q0 66-47 113t-113 47H160q-66 0-113-47T0 1248V454q44 49 101 87 362 246 497 345 57 42 92.5 65.5t94.5 48 110 24.5h2q51 0 110-24.5t94.5-48T1194 886q170-123 498-345 57-39 100-87zm0-294q0 79-49 151t-122 123q-376 261-468 325-10 7-42.5 30.5t-54 38-52 32.5-57.5 27-50 9h-2q-23 0-50-9t-57.5-27-52-32.5-54-38T639 759q-91-64-262-182.5T172 434q-62-42-117-115.5T0 182q0-78 41.5-130T160 0h1472q65 0 112.5 47t47.5 113z"/></symbol>
<symbol viewBox="0 0 1536 1500.3333740234375" aria-labelledby="kpsi-awesome-github-title" id="si-awesome-github"><title id="kpsi-awesome-github-title">icon github</title><path d="M768 0q209 0 385.5 103T1433 382.5 1536 768q0 251-146.5 451.5T1011 1497q-27 5-40-7t-13-30q0-3 .5-76.5t.5-134.5q0-97-52-142 57-6 102.5-18t94-39 81-66.5 53-105T1258 728q0-119-79-206 37-91-8-204-28-9-81 11t-92 44l-38 24q-93-26-192-26t-192 26q-16-11-42.5-27T450 331.5 365 318q-45 113-8 204-79 87-79 206 0 85 20.5 150T351 983t80.5 67 94 39 102.5 18q-39 36-49 103-21 10-45 15t-57 5-65.5-21.5T356 1146q-19-32-48.5-52t-49.5-24l-20-3q-21 0-29 4.5t-5 11.5 9 14 13 12l7 5q22 10 43.5 38t31.5 51l10 23q13 38 44 61.5t67 30 69.5 7 55.5-3.5l23-4q0 38 .5 88.5t.5 54.5q0 18-13 30t-40 7q-232-77-378.5-277.5T0 768q0-209 103-385.5T382.5 103 768 0zM291 1103q3-7-7-12-10-3-13 2-3 7 7 12 9 6 13-2zm31 34q7-5-2-16-10-9-16-3-7 5 2 16 10 10 16 3zm30 45q9-7 0-19-8-13-17-6-9 5 0 18t17 7zm42 42q8-8-4-19-12-12-20-3-9 8 4 19 12 12 20 3zm57 25q3-11-13-16-15-4-19 7t13 15q15 6 19-6zm63 5q0-13-17-11-16 0-16 11 0 13 17 11 16 0 16-11zm58-10q-2-11-18-9-16 3-14 15t18 8 14-14z"/></symbol>
<symbol viewBox="0 0 1613.3333740234375 1283" aria-labelledby="masi-awesome-home-title" id="si-awesome-home"><title id="masi-awesome-home-title">icon home</title><path d="M1382.667 739v480q0 26-19 45t-45 19h-384V899h-256v384h-384q-26 0-45-19t-19-45V739q0-1 .5-3t.5-3l575-474 575 474q1 2 1 6zm223-69l-62 74q-8 9-21 11h-3q-13 0-21-7l-692-577-692 577q-12 8-24 7-13-2-21-11l-62-74q-8-10-7-23.5t11-21.5l719-599q32-26 76-26t76 26l244 204V35q0-14 9-23t23-9h192q14 0 23 9t9 23v408l219 182q10 8 11 21.5t-7 23.5z"/></symbol>
<symbol viewBox="0 0 1536 1536" aria-labelledby="mqsi-awesome-info-circle-title" id="si-awesome-info-circle"><title id="mqsi-awesome-info-circle-title">icon info-circle</title><path d="M1024 1248v-160q0-14-9-23t-23-9h-96V544q0-14-9-23t-23-9H544q-14 0-23 9t-9 23v160q0 14 9 23t23 9h96v320h-96q-14 0-23 9t-9 23v160q0 14 9 23t23 9h448q14 0 23-9t9-23zM896 352V192q0-14-9-23t-23-9H672q-14 0-23 9t-9 23v160q0 14 9 23t23 9h192q14 0 23-9t9-23zm640 416q0 209-103 385.5T1153.5 1433 768 1536t-385.5-103T103 1153.5 0 768t103-385.5T382.5 103 768 0t385.5 103T1433 382.5 1536 768z"/></symbol>
<symbol viewBox="0 0 1152 1408" aria-labelledby="nwsi-awesome-lock-title" id="si-awesome-lock"><title id="nwsi-awesome-lock-title">icon lock</title><path d="M320 640h512V448q0-106-75-181t-181-75-181 75-75 181v192zm832 96v576q0 40-28 68t-68 28H96q-40 0-68-28t-28-68V736q0-40 28-68t68-28h32V448q0-184 132-316T576 0t316 132 132 316v192h32q40 0 68 28t28 68z"/></symbol>
<symbol viewBox="0 0 1536 1536" aria-labelledby="rjsi-awesome-question-circle-title" id="si-awesome-question-circle"><title id="rjsi-awesome-question-circle-title">icon question-circle</title><path d="M896 1248v-192q0-14-9-23t-23-9H672q-14 0-23 9t-9 23v192q0 14 9 23t23 9h192q14 0 23-9t9-23zm256-672q0-88-55.5-163T958 297t-170-41q-243 0-371 213-15 24 8 42l132 100q7 6 19 6 16 0 25-12 53-68 86-92 34-24 86-24 48 0 85.5 26t37.5 59q0 38-20 61t-68 45q-63 28-115.5 86.5T640 892v36q0 14 9 23t23 9h192q14 0 23-9t9-23q0-19 21.5-49.5T972 829q32-18 49-28.5t46-35 44.5-48 28-60.5 12.5-81zm384 192q0 209-103 385.5T1153.5 1433 768 1536t-385.5-103T103 1153.5 0 768t103-385.5T382.5 103 768 0t385.5 103T1433 382.5 1536 768z"/></symbol>
<symbol viewBox="0 0 1408 1536" aria-labelledby="wasi-awesome-trash-title" id="si-awesome-trash"><title id="wasi-awesome-trash-title">icon trash</title><path d="M512 1248V544q0-14-9-23t-23-9h-64q-14 0-23 9t-9 23v704q0 14 9 23t23 9h64q14 0 23-9t9-23zm256 0V544q0-14-9-23t-23-9h-64q-14 0-23 9t-9 23v704q0 14 9 23t23 9h64q14 0 23-9t9-23zm256 0V544q0-14-9-23t-23-9h-64q-14 0-23 9t-9 23v704q0 14 9 23t23 9h64q14 0 23-9t9-23zM480 256h448l-48-117q-7-9-17-11H546q-10 2-17 11zm928 32v64q0 14-9 23t-23 9h-96v948q0 83-47 143.5t-113 60.5H288q-66 0-113-58.5T128 1336V384H32q-14 0-23-9t-9-23v-64q0-14 9-23t23-9h309l70-167q15-37 54-63t79-26h320q40 0 79 26t54 63l70 167h309q14 0 23 9t9 23z"/></symbol>
<symbol viewBox="0 0 1576 1280" aria-labelledby="wmsi-awesome-twitter-title" id="si-awesome-twitter"><title id="wmsi-awesome-twitter-title">icon twitter</title><path d="M1576 152q-67 98-162 167 1 14 1 42 0 130-38 259.5T1261.5 869 1077 1079.5t-258 146-323 54.5q-271 0-496-145 35 4 78 4 225 0 401-138-105-2-188-64.5T177 777q33 5 61 5 43 0 85-11-112-23-185.5-111.5T64 454v-4q68 38 146 41-66-44-105-115T66 222q0-88 44-163 121 149 294.5 238.5T776 397q-8-38-8-74 0-134 94.5-228.5T1091 0q140 0 236 102 109-21 205-78-37 115-142 178 93-10 186-50z"/></symbol>
<symbol viewBox="0 0 1408 1536" aria-labelledby="wvsi-awesome-user-title" id="si-awesome-user"><title id="wvsi-awesome-user-title">icon user</title><path d="M1408 1277q0 120-73 189.5t-194 69.5H267q-121 0-194-69.5T0 1277q0-53 3.5-103.5t14-109T44 956t43-97.5 62-81 85.5-53.5T346 704q9 0 42 21.5t74.5 48 108 48T704 843t133.5-21.5 108-48 74.5-48 42-21.5q61 0 111.5 20t85.5 53.5 62 81 43 97.5 26.5 108.5 14 109 3.5 103.5zm-320-893q0 159-112.5 271.5T704 768 432.5 655.5 320 384t112.5-271.5T704 0t271.5 112.5T1088 384z"/></symbol>
  </defs>
</svg>
